<?xml version="1.0" standalone="no"?>
<!DOCTYPE svg PUBLIC "-//W3C//DTD SVG 20010904//EN"
 "http://www.w3.org/TR/2001/REC-SVG-20010904/DTD/svg10.dtd">
<svg version="1.0" xmlns="http://www.w3.org/2000/svg"
 width="2476.000000pt" height="565.000000pt" viewBox="0 0 2476.000000 565.000000"
 preserveAspectRatio="xMidYMid meet">
<metadata>
Created by potrace 1.16, written by Peter Selinger 2001-2019
</metadata>
<g transform="translate(0.000000,565.000000) scale(0.100000,-0.100000)"
fill="#000000" stroke="none">
<path d="M7165 5618 c-28 -67 -67 -475 -177 -1828 l-42 -515 -3 -680 -4 -681
22 -28 c26 -33 75 -56 119 -56 16 0 30 -3 30 -7 0 -22 -24 -141 -32 -155 -5
-10 -15 -18 -23 -18 -8 0 -24 -13 -37 -30 l-22 -30 -283 0 -283 0 0 721 0 721
-30 28 -30 28 0 519 c0 333 -4 532 -11 556 -12 43 -57 77 -102 77 l-28 0 1
519 c1 454 -1 523 -14 550 -20 38 -20 64 -1 101 15 29 15 30 -6 30 -33 0 -88
-30 -109 -60 -46 -65 -50 -112 -50 -642 l0 -498 -25 0 c-63 0 -115 -57 -115
-126 0 -16 -5 -24 -12 -22 -10 4 -14 130 -18 570 -5 597 -4 578 -50 615 -28
23 -107 13 -520 -62 -805 -147 -1058 -202 -1329 -292 -527 -174 -820 -393
-930 -698 -17 -47 -31 -90 -31 -94 0 -5 -73 -11 -162 -14 -125 -4 -181 -10
-238 -27 -162 -46 -310 -143 -310 -202 0 -44 27 -94 72 -132 l39 -33 -65 -324
c-35 -178 -70 -356 -76 -396 l-12 -72 -51 -5 c-29 -3 -266 -19 -527 -36 -620
-40 -813 -57 -935 -81 -163 -33 -247 -82 -295 -173 l-24 -44 -76 -4 c-93 -4
-144 -33 -187 -105 l-28 -48 0 -415 c0 -228 3 -427 8 -443 7 -27 7 -27 -44
-27 -43 0 -55 -5 -80 -29 l-29 -29 0 -147 0 -147 29 -29 29 -29 149 0 c134 0
153 2 193 22 25 13 56 39 69 58 13 19 20 26 16 15 -55 -141 -67 -394 -27 -544
27 -99 75 -207 129 -288 126 -191 347 -341 573 -389 37 -8 124 -14 201 -14
160 0 257 20 387 81 223 103 405 305 480 532 43 129 56 221 49 357 -20 417
-321 770 -729 854 -97 20 -284 21 -375 1 -280 -59 -505 -227 -638 -476 l-30
-57 -2 71 c-1 64 1 75 30 116 56 83 120 152 201 217 349 279 814 295 1191 41
78 -53 200 -175 255 -256 124 -184 188 -418 173 -630 l-6 -73 29 5 c16 3 171
16 344 29 l315 22 27 28 c31 33 32 34 58 8 19 -19 33 -20 308 -20 276 0 290 1
307 20 19 21 65 28 65 10 0 -5 9 -19 20 -30 36 -36 120 -19 120 25 0 7 9 15
20 18 19 5 20 0 20 -167 0 -133 3 -177 14 -192 13 -17 30 -19 162 -22 110 -3
150 -7 161 -18 21 -20 176 -20 193 1 19 23 734 23 756 0 21 -21 176 -21 193
-1 10 11 49 15 172 18 145 3 162 5 175 22 10 15 14 55 14 159 l0 139 193 -7
c105 -3 570 -15 1031 -26 462 -10 840 -20 841 -22 1 -1 14 -44 29 -96 46 -161
115 -281 225 -392 321 -320 823 -353 1186 -76 146 111 272 306 317 488 l21 87
59 18 c56 17 62 17 133 0 67 -16 76 -21 81 -44 3 -15 19 -71 35 -124 104 -330
402 -571 749 -606 455 -46 854 232 965 673 l23 89 43 15 c38 12 47 12 91 -4
46 -16 49 -16 91 4 24 12 51 21 60 21 9 0 28 11 44 24 25 21 28 32 31 99 4 72
5 76 33 87 15 7 34 18 40 26 7 8 30 14 55 14 l44 0 -2 223 -3 222 -110 5
c-100 5 -110 7 -114 25 -2 11 -8 23 -15 27 -6 4 -67 8 -136 8 l-124 0 -44 42
c-38 38 -48 43 -88 43 -38 0 -50 -5 -70 -28 -13 -15 -24 -35 -24 -43 0 -10
-13 -14 -49 -14 -39 0 -56 6 -87 30 -61 49 -151 101 -228 131 l-71 28 178 1
c98 0 561 -5 1029 -11 788 -10 857 -12 927 -30 88 -22 175 -62 322 -146 241
-139 308 -148 1184 -158 292 -3 859 -12 1260 -20 402 -8 1099 -21 1550 -30
451 -8 866 -18 923 -21 l102 -6 0 -76 c0 -133 26 -182 97 -182 l33 0 0 -130
c0 -147 2 -150 82 -150 24 0 49 -5 55 -11 17 -17 90 -14 111 3 15 14 24 13 82
-6 l64 -21 13 -62 c18 -93 67 -210 122 -294 64 -98 206 -232 302 -286 444
-251 1017 -82 1244 367 35 69 72 176 80 233 7 43 8 44 59 60 65 21 67 21 152
1 l69 -15 18 -77 c72 -319 324 -576 646 -659 116 -29 295 -34 406 -10 344 73
614 340 690 683 l16 71 54 15 c48 13 55 13 70 -1 18 -18 90 -20 108 -2 6 6 33
11 59 11 79 0 88 16 88 160 l0 120 26 0 c14 0 34 5 46 11 24 13 48 67 48 109
0 29 1 30 49 30 42 0 53 4 70 26 12 15 21 41 21 58 0 69 70 172 133 195 32 12
295 14 524 4 l151 -6 4 -75 c3 -69 6 -76 36 -103 32 -29 34 -29 157 -29 l125
0 0 -135 0 -135 -131 0 -131 0 -29 -29 c-28 -28 -29 -33 -29 -124 0 -88 2 -98
26 -126 l26 -31 158 0 c144 0 160 2 184 21 l26 20 0 698 c0 693 0 699 -21 725
-11 14 -34 33 -49 41 -26 13 -1058 15 -8645 15 l-8615 0 0 1633 c0 1082 -4
1644 -10 1669 -6 20 -24 48 -41 62 -28 23 -39 26 -115 26 l-85 0 -14 -32z
m145 -1873 l0 -1795 -130 0 -130 0 0 566 c0 509 3 600 25 903 72 957 159 1966
181 2089 5 25 11 32 30 32 l24 0 0 -1795z m-1550 905 l0 -529 -762 -3 c-722
-3 -765 -4 -798 -22 -49 -26 -88 -64 -113 -111 l-22 -40 -5 -1196 c-4 -996 -7
-1199 -19 -1213 -12 -15 -75 -16 -765 -14 l-751 3 -7 63 c-33 298 -262 588
-549 696 -147 55 -174 57 -804 54 l-580 -3 -62 -29 c-76 -35 -144 -104 -181
-184 -27 -56 -27 -61 -32 -312 l-5 -255 -22 29 c-23 29 -23 29 -23 425 0 434
-1 424 59 456 26 13 310 23 1383 46 l53 1 -50 8 c-27 4 -297 21 -599 36 l-549
28 41 36 c93 83 228 101 1232 165 217 13 413 27 435 30 58 9 218 81 247 113
63 67 63 64 66 457 2 198 0 370 -3 382 -3 15 -22 30 -54 44 -27 11 -58 30 -68
41 -17 19 -17 20 2 34 38 29 160 84 220 100 45 12 134 18 365 24 302 7 710 37
710 52 0 5 -21 8 -46 8 -47 0 -567 40 -571 43 -1 2 13 39 30 83 110 271 385
467 887 629 278 89 625 162 1670 348 14 2 28 5 33 6 4 0 7 -237 7 -529z m490
-1740 l0 -1220 -110 0 -110 0 0 1220 0 1220 110 0 110 0 0 -1220z m-400 1074
c64 -38 60 44 60 -1214 0 -1039 -1 -1144 -16 -1170 -38 -63 5 -60 -849 -60
-674 0 -780 2 -805 15 -63 33 -60 -38 -60 1215 0 999 2 1145 15 1170 32 62 -4
59 848 60 704 0 782 -2 807 -16z m-3990 -1753 c331 -100 544 -369 567 -718 l6
-93 774 0 773 0 0 -25 0 -25 -789 0 c-619 0 -791 3 -799 13 -5 6 -12 66 -14
132 -9 204 -70 347 -208 485 -86 86 -171 139 -285 178 l-80 27 -575 3 c-649 3
-627 5 -706 -74 -67 -66 -74 -104 -74 -391 0 -243 0 -243 -20 -231 -20 13 -21
20 -18 273 3 249 4 262 26 303 43 80 121 141 207 163 17 4 280 6 585 5 545 -2
556 -2 630 -25z m22784 -97 c14 -14 16 -57 14 -357 l-3 -342 -100 0 -100 0 -5
245 -5 244 -25 13 c-20 10 -1692 13 -8507 13 l-8483 0 0 100 0 100 8599 0
c7834 0 8601 -1 8615 -16z m-15148 -384 c18 -41 33 -78 33 -82 1 -5 -33 -8
-75 -8 -52 0 -85 -5 -104 -16 -27 -16 -29 -16 -74 16 -64 44 -197 104 -276
126 -50 14 -103 18 -225 19 -138 0 -171 -3 -239 -23 -103 -30 -215 -85 -294
-144 -59 -45 -67 -48 -123 -48 -45 0 -59 3 -59 14 0 8 -11 28 -24 43 -20 23
-32 28 -70 28 -40 0 -50 -5 -88 -42 l-44 -43 -216 0 c-208 0 -217 1 -223 20
-4 11 -19 27 -35 35 -31 16 -36 26 -45 100 -4 28 -9 58 -12 68 -4 16 50 17
1078 15 l1083 -3 32 -75z m-1500 -155 c4 -9 -15 -39 -49 -77 -142 -163 -205
-321 -225 -568 -6 -76 -9 -85 -28 -88 -41 -6 -47 19 -36 131 16 146 44 248
102 362 61 123 168 255 206 255 13 0 27 -7 30 -15z m3693 -54 c131 -153 199
-318 223 -544 11 -97 10 -109 -5 -125 -13 -13 -21 -14 -35 -6 -13 9 -19 33
-25 105 -18 216 -84 385 -206 526 -73 85 -82 113 -35 113 16 0 40 -20 83 -69z
m7489 46 c2 -11 -16 -39 -47 -71 -133 -142 -221 -363 -221 -558 0 -67 -12 -98
-39 -98 -24 0 -31 19 -31 80 0 169 77 405 175 536 90 119 153 162 163 111z
m3679 -29 c147 -157 234 -375 237 -593 1 -91 -1 -100 -18 -103 -31 -6 -46 26
-46 94 0 199 -98 441 -229 569 -38 37 -50 63 -34 78 16 17 44 3 90 -45z
m-13903 -97 c334 -119 486 -485 331 -796 -179 -361 -668 -427 -935 -127 -176
197 -196 477 -49 697 79 118 204 206 344 242 74 19 236 11 309 -16z m1995 14
c251 -59 441 -299 441 -555 0 -153 -57 -286 -170 -401 -116 -117 -244 -171
-408 -170 -252 0 -474 172 -548 426 -24 84 -22 220 5 305 60 190 221 344 411
394 72 19 189 19 269 1z m9145 -1 c253 -65 436 -299 436 -556 0 -155 -55 -285
-169 -398 -121 -120 -240 -171 -401 -171 -47 0 -112 7 -144 16 -195 52 -360
217 -411 411 -19 70 -21 202 -4 270 48 201 219 375 419 428 74 20 198 20 274
0z m2041 1 c151 -39 302 -157 373 -291 169 -323 -4 -716 -360 -819 -68 -19
-202 -22 -273 -5 -208 50 -381 224 -430 431 -44 190 13 387 155 529 73 73 175
132 266 154 79 19 196 19 269 1z m-21775 -20 c37 -19 60 -63 60 -115 0 -32 -7
-48 -34 -78 l-34 -37 -134 0 -133 0 -3 109 c-1 61 0 116 2 123 8 20 237 18
276 -2z m9714 -7 c8 -14 6 -23 -12 -45 -89 -111 -129 -171 -173 -260 -69 -141
-81 -142 -139 -17 -42 91 -122 213 -170 259 -16 16 -30 36 -30 45 0 38 16 40
269 38 218 -3 245 -5 255 -20z m11174 10 c20 -20 14 -36 -40 -102 -62 -75
-127 -181 -152 -248 -21 -54 -46 -81 -69 -72 -8 3 -28 36 -44 72 -35 83 -111
201 -169 264 -49 52 -51 59 -28 82 13 14 50 16 253 16 171 0 240 -3 249 -12z
m-19770 -13 c99 -23 179 -70 258 -149 84 -84 127 -165 151 -283 15 -70 16 -93
5 -165 -22 -151 -106 -288 -230 -372 -96 -65 -166 -88 -287 -94 -88 -4 -109
-1 -178 22 -92 31 -145 62 -211 125 -134 128 -193 301 -163 476 21 116 67 205
152 291 136 138 319 192 503 149z m2972 -470 l0 -415 -35 0 -35 0 0 415 0 415
35 0 35 0 0 -415z m950 0 l0 -415 -35 0 -35 0 0 415 0 415 35 0 35 0 0 -415z
m-1110 320 l0 -85 -84 0 c-100 0 -116 -5 -116 -35 0 -30 16 -35 116 -35 l84 0
0 -270 0 -270 -115 0 -115 0 0 390 0 390 115 0 115 0 0 -85z m950 0 c0 -76 -2
-85 -19 -85 -10 0 -24 -7 -32 -16 -16 -20 -1 -48 30 -52 21 -3 21 -5 21 -273
l0 -269 -355 0 -355 0 0 270 0 270 296 2 c264 3 298 5 307 20 8 12 7 21 -2 32
-12 14 -51 16 -307 16 l-294 0 0 85 0 85 355 0 355 0 0 -85z m500 0 l0 -85
-130 0 -130 0 0 85 0 85 130 0 130 0 0 -85z m0 -425 l0 -270 -130 0 -130 0 0
270 0 270 130 0 130 0 0 -270z m1654 175 c13 -20 25 -25 56 -25 36 0 40 -3 40
-25 l0 -25 -122 0 c-98 1 -1166 27 -1175 29 -2 1 -3 17 -3 36 l0 35 594 0 594
0 16 -25z m17266 -150 l0 -45 -105 0 -105 0 0 45 0 45 105 0 105 0 0 -45z"/>
<path d="M2735 3860 c-31 -13 -66 -50 -81 -86 -12 -28 -14 -208 -14 -1071 l0
-1038 23 -40 c14 -26 37 -48 67 -62 44 -23 45 -23 565 -23 520 0 521 0 565 23
25 12 55 37 67 56 l23 34 0 1049 c0 1170 5 1094 -69 1144 l-36 24 -545 -1
c-300 0 -554 -4 -565 -9z m1102 -102 l23 -21 0 -1028 c0 -996 -1 -1027 -19
-1050 l-19 -24 -508 -3 c-352 -2 -517 1 -535 8 -15 6 -31 23 -38 36 -8 18 -11
306 -11 1038 0 1010 0 1013 21 1040 l20 26 522 0 521 0 23 -22z"/>
<path d="M2817 3692 c-15 -16 -17 -54 -17 -324 0 -283 1 -306 18 -321 17 -15
65 -17 479 -17 455 0 460 0 479 21 18 20 19 40 19 319 0 279 -1 299 -19 319
-19 21 -24 21 -481 21 -435 0 -463 -1 -478 -18z"/>
<path d="M3445 2500 c-14 -44 7 -51 158 -48 116 3 142 6 150 19 6 9 7 24 4 33
-6 14 -27 16 -156 16 -142 0 -150 -1 -156 -20z"/>
<path d="M2265 2533 c-58 -36 -75 -50 -75 -65 0 -5 61 -8 135 -8 129 0 135 1
135 20 0 29 -26 76 -45 84 -40 15 -92 5 -150 -31z"/>
<path d="M2190 2380 l0 -30 135 0 135 0 0 30 0 30 -135 0 -135 0 0 -30z"/>
<path d="M2190 2303 c1 -29 130 -103 179 -103 41 0 91 47 91 84 l0 26 -135 0
c-74 0 -135 -3 -135 -7z"/>
<path d="M6180 2891 c0 -698 3 -1022 10 -1026 6 -4 17 -1 25 5 13 11 15 147
13 1024 l-3 1011 -22 3 -23 3 0 -1020z"/>
<path d="M8685 1136 c-150 -65 -191 -269 -77 -378 55 -53 92 -68 164 -68 79 0
133 24 180 80 84 97 71 247 -29 329 -21 17 -54 36 -73 41 -49 14 -129 12 -165
-4z m173 -105 c43 -30 67 -96 53 -148 -34 -125 -204 -140 -264 -23 -34 65 -1
155 67 186 41 19 107 12 144 -15z"/>
<path d="M10714 1126 c-83 -38 -125 -108 -126 -206 -1 -69 26 -134 74 -176 49
-43 97 -57 178 -52 87 5 142 40 183 118 105 201 -101 413 -309 316z m174 -86
c118 -72 80 -244 -56 -258 -90 -8 -152 48 -152 140 0 39 6 54 32 84 18 20 41
40 52 44 37 15 90 11 124 -10z"/>
<path d="M19849 1122 c-34 -17 -65 -44 -84 -71 -28 -40 -30 -49 -30 -130 0
-79 3 -92 28 -129 15 -23 46 -54 69 -69 37 -25 50 -28 129 -28 81 0 90 2 130
30 60 42 99 119 99 194 -1 178 -182 286 -341 203z m179 -82 c64 -39 89 -118
57 -179 -52 -102 -183 -110 -246 -15 -27 41 -25 113 3 149 50 64 125 82 186
45z"/>
<path d="M21905 1131 c-122 -57 -170 -201 -107 -321 40 -78 95 -113 182 -118
81 -5 129 9 178 52 47 42 74 104 74 175 0 64 -13 102 -49 150 -56 72 -190 103
-278 62z m197 -119 c33 -36 38 -47 38 -89 0 -88 -55 -143 -144 -143 -102 0
-169 120 -116 208 31 51 76 74 134 69 43 -4 55 -10 88 -45z"/>
<path d="M1272 1137 c-157 -58 -199 -272 -75 -389 41 -39 94 -58 163 -58 122
0 213 80 227 200 12 99 -45 202 -131 241 -47 21 -134 24 -184 6z m142 -91 c69
-29 103 -120 69 -186 -57 -109 -205 -106 -254 6 -52 117 64 231 185 180z"/>
<path d="M6241 5424 c-27 -35 -28 -93 0 -128 26 -33 53 -33 84 -1 33 32 33 85
3 119 -36 38 -62 41 -87 10z"/>
</g>
</svg>
