<?xml version="1.0" encoding="utf-8"?>
<!-- Svg Vector Icons : http://www.onlinewebfonts.com/icon -->
<!DOCTYPE svg PUBLIC "-//W3C//DTD SVG 1.1//EN" "http://www.w3.org/Graphics/SVG/1.1/DTD/svg11.dtd">
<svg version="1.1" xmlns="http://www.w3.org/2000/svg" xmlns:xlink="http://www.w3.org/1999/xlink" x="0px" y="0px" viewBox="0 0 1000 1000" enable-background="new 0 0 1000 1000" xml:space="preserve">
<metadata> Svg Vector Icons : http://www.onlinewebfonts.com/icon </metadata>
<g><g><g><path d="M982.3,615.9h-32.8c6.9,9.7,11.9,20.8,14.3,32.9h18.5C999.6,622.8,982.3,615.9,982.3,615.9z"/><path d="M808.2,615.9H606.6v-16l46.1-3V380.5c0,0-14.4-74.8-15.4-106.7c-1-31.9-52.9-19-52.9-19c-230.6,27.9-273.9,123.7-273.9,123.7h-10.6l-29.8,35.9c6.7,12,13.5,8,13.5,8c-9.6,9-27.9,64.8-27.9,64.8s-116.3,12-163.4,13c-47.1,1-55.7,16-55.7,16v99.7c0,0-49,58.8-14.4,46.9c32.6-11.3,12.4-62.1,79.1-68c8.4-2.7,17.3-4.2,26.6-4.2c47.7,0,86.6,38.8,86.6,86.6c0,3.6-0.3,7.1-0.7,10.6h458c9.6-17,6.7-38.9,6.7-38.9h115.2C796.3,636.7,801.3,625.6,808.2,615.9z"/><path d="M128.1,606.4c39,0,70.7,31.6,70.7,70.7c0,39-31.6,70.7-70.7,70.7c-39,0-70.7-31.7-70.7-70.7C57.4,638.1,89,606.4,128.1,606.4z"/><path d="M928.9,615.9c-12.8-12.8-30.5-20.8-50.1-20.8c-19.6,0-37.3,7.9-50.1,20.8c-8.9,8.9-15.2,20.3-18.4,32.9c-1.4,5.5-2.3,11.2-2.3,17.1c0,39.1,31.7,70.8,70.8,70.8c39.1,0,70.8-31.7,70.8-70.8c0-5.9-0.9-11.6-2.3-17.1C944.2,636.1,937.8,624.8,928.9,615.9z"/></g></g><g></g><g></g><g></g><g></g><g></g><g></g><g></g><g></g><g></g><g></g><g></g><g></g><g></g><g></g><g></g></g>
</svg>